# xmcd
#
# Track frame offsets:
#	182
#	21505
#	38322
#	62120
#	82427
#	97380
#	112892
#	143365
#	164367
#	192737
#	208547
#	223480
#	237100
#	253345
#	270222
#	281017
#	299815
#	311725
#	324570
#	341595
#
# Disc length: 4755 seconds
#
# Revision: 3
# Processed by: cddbd v1.5.2PL0 Copyright (c) Steve Scherf et al.
# Submitted via: audiograbber 1.83.01
#
DISCID=44129114
DTITLE=Goodnight Saigon  - Volume 1
DYEAR=1996
DGENRE=versch
TTITLE0=Jimmy Cliff - Vietnam
TTITLE1=Blue Mink - Melting pot
TTITLE2=10 CC - Rubber Bullets
TTITLE3=The Animals - House of the rising sun
TTITLE4=Alan Price - I put a spell on you
TTITLE5=Deep Purple - Black night
TTITLE6=E.L.O. - Roll over Beethoven
TTITLE7=Hawkwind - Silver machine
TTITLE8=Grand Funk Railroad - Gimme shelter
TTITLE9=The Dirt Band - An American dream
TTITLE10=America - Sister golden hair
TTITLE11=Jim Croce - You don't mess with Jim
TTITLE12=Nitty Gritty Dirt Band - Mr. Bojangles
TTITLE13=Ten Years After - I'd love to change the world
TTITLE14=Manfred Mann - Do Wah Diddy Diddy
TTITLE15=Don Mclean - American pie
TTITLE16=Beach Boys - I can hear music
TTITLE17=Ike and Tina Turner - Stagger Lee and Billy
TTITLE18=Etta James - Blowin' in the wind
TTITLE19=Melanie - Peace will come
EXTD=
EXTT0=
EXTT1=
EXTT2=
EXTT3=
EXTT4=
EXTT5=
EXTT6=
EXTT7=
EXTT8=
EXTT9=
EXTT10=
EXTT11=
EXTT12=
EXTT13=
EXTT14=
EXTT15=
EXTT16=
EXTT17=
EXTT18=
EXTT19=
PLAYORDER=
